<svg xmlns="http://www.w3.org/2000/svg" viewBox="0 0 87.4 83.3"><defs><style>.a{fill:#fff;}.b{fill:#00b900;}</style></defs><title>icon_line</title><path class="a" d="M87.4,35.5C87.4,15.9,67.8,0,43.7,0S0,15.9,0,35.5C0,53,15.5,67.7,36.5,70.4c1.5.3,3.4,1,3.9,2.2a8.6,8.6,0,0,1,.1,3.9l-.6,3.8c-.2,1.1-.9,4.3,3.8,2.3S68.9,67.8,78,57.3h0c6.3-7,9.4-14,9.4-21.8"/><path class="b" d="M34.8,26H31.7a.9.9,0,0,0-.8.9v19a.8.8,0,0,0,.8.8h3.1a.8.8,0,0,0,.9-.8v-19a.9.9,0,0,0-.9-.9"/><path class="b" d="M55.9,26H52.8a.9.9,0,0,0-.8.9V38.2L43.3,26.4H39.5a.9.9,0,0,0-.9.9v19a.8.8,0,0,0,.9.8h3.1a.8.8,0,0,0,.8-.8V34.6l8.7,11.8.3.2h3.5a.8.8,0,0,0,.9-.8v-19a.9.9,0,0,0-.9-.9"/><path class="b" d="M27.4,42H19.1V26.9a.9.9,0,0,0-.9-.9h-3a.9.9,0,0,0-.9.9v19h0a.9.9,0,0,0,.3.6h0c.1.2.4.2.6.2H27.4a.8.8,0,0,0,.9-.8V42.8a.9.9,0,0,0-.9-.8"/><path class="b" d="M72.8,30.8a.9.9,0,0,0,.9-.9v-3a.9.9,0,0,0-.9-.9H60.6l-.6.2h0a.6.6,0,0,0-.3.6h0v19h0a.9.9,0,0,0,.3.6h0a.7.7,0,0,0,.6.2H72.8a.8.8,0,0,0,.9-.8V42.8a.9.9,0,0,0-.9-.8H64.5V38.8h8.3a.9.9,0,0,0,.9-.9V34.8a.9.9,0,0,0-.9-.8H64.5V30.8Z"/></svg>