<?xml version="1.0" standalone="no"?>
<!DOCTYPE svg PUBLIC "-//W3C//DTD SVG 20010904//EN"
 "http://www.w3.org/TR/2001/REC-SVG-20010904/DTD/svg10.dtd">
<svg version="1.0" xmlns="http://www.w3.org/2000/svg"
 width="300.000000pt" height="300.000000pt" viewBox="0 0 300.000000 300.000000"
 preserveAspectRatio="xMidYMid meet">
<metadata>
Created by potrace 1.11, written by Peter Selinger 2001-2013
</metadata>
<g transform="translate(0.000000,300.000000) scale(0.100000,-0.100000)"
fill="#000000" stroke="none">
<path d="M0 1500 l0 -1500 1500 0 1500 0 0 1500 0 1500 -1500 0 -1500 0 0
-1500z m2990 0 l0 -1490 -1490 0 -1490 0 0 1490 0 1490 1490 0 1490 0 0 -1490z"/>
<path d="M880 1604 l0 -65 -22 15 c-29 20 -97 20 -126 0 -72 -50 -67 -194 9
-235 32 -17 98 -13 120 7 17 16 19 16 19 1 0 -10 8 -17 20 -17 19 0 20 7 20
180 0 173 -1 180 -20 180 -18 0 -20 -7 -20 -66z m-29 -93 c32 -32 38 -79 18
-124 -43 -96 -167 -22 -139 82 11 42 41 71 73 71 10 0 32 -13 48 -29z"/>
<path d="M990 1466 c0 -95 2 -107 23 -132 19 -21 31 -26 66 -26 26 1 51 8 62
18 17 16 19 16 19 1 0 -10 8 -17 20 -17 19 0 20 7 20 130 0 123 -1 130 -20
130 -18 0 -20 -7 -20 -88 0 -100 -12 -126 -62 -137 -53 -12 -68 17 -68 131 0
87 -1 94 -20 94 -19 0 -20 -7 -20 -104z"/>
<path d="M1270 1440 c0 -123 1 -130 20 -130 19 0 20 7 20 89 0 70 4 93 18 109
27 32 58 36 81 13 18 -18 21 -34 21 -116 0 -88 1 -95 20 -95 19 0 20 7 20 93
0 77 3 97 18 109 31 28 59 31 81 9 18 -18 21 -34 21 -116 0 -88 1 -95 20 -95
19 0 20 7 20 101 0 95 -9 135 -34 151 -22 15 -92 8 -113 -11 -20 -19 -20 -19
-36 0 -21 24 -83 25 -115 3 -20 -14 -22 -14 -22 0 0 9 -9 16 -20 16 -19 0 -20
-7 -20 -130z"/>
<path d="M1690 1440 c0 -123 1 -130 20 -130 18 0 20 7 20 74 0 93 14 134 48
143 33 9 54 5 64 -10 4 -7 8 -56 8 -109 0 -89 2 -98 19 -98 17 0 19 10 23 95
3 71 8 99 20 112 21 20 76 22 89 2 5 -8 9 -58 9 -111 0 -91 1 -98 20 -98 19 0
20 7 20 114 0 107 -1 116 -22 130 -29 21 -87 20 -116 0 -21 -15 -25 -15 -41 0
-23 20 -94 21 -111 1 -7 -8 -16 -15 -21 -15 -5 0 -9 7 -9 15 0 8 -9 15 -20 15
-19 0 -20 -7 -20 -130z"/>
<path d="M2111 1518 c85 -213 83 -205 69 -238 -9 -21 -19 -30 -36 -30 -17 0
-24 -6 -24 -20 0 -26 50 -28 73 -2 9 9 40 80 70 157 75 194 74 187 46 183 -19
-2 -28 -19 -57 -108 l-35 -105 -24 65 c-13 36 -30 84 -39 108 -12 33 -21 42
-40 42 l-24 0 21 -52z"/>
</g>
</svg>
