<svg xmlns="http://www.w3.org/2000/svg" viewBox="0 0 249.9 203.2"><path d="M78.5 203.2c94.3 0 145.9-78.2 145.9-145.9 0-2.2 0-4.4-.1-6.6a104.5 104.5 0 0 0 25.6-26.6 103.9 103.9 0 0 1-29.5 8.1A51.6 51.6 0 0 0 243 3.8a102 102 0 0 1-32.6 12.4 51.3 51.3 0 0 0-88.7 35.1A56.7 56.7 0 0 0 123 63 145.6 145.6 0 0 1 17.3 9.4a51.5 51.5 0 0 0 15.9 68.5A51.9 51.9 0 0 1 10 71.5v.7a51.4 51.4 0 0 0 41.1 50.3 51.6 51.6 0 0 1-23.1.9A51.3 51.3 0 0 0 75.9 159a102.8 102.8 0 0 1-63.7 22 98.7 98.7 0 0 1-12.2-.7 145.9 145.9 0 0 0 78.5 22.9" fill="#fff"/></svg>