<svg xmlns="http://www.w3.org/2000/svg" viewBox="0 0 87.4 83.3"><path d="M87.4 35.5C87.4 15.9 67.8 0 43.7 0S0 15.9 0 35.5C0 53 15.5 67.7 36.5 70.4c1.5.3 3.4 1 3.9 2.2a8.6 8.6 0 0 1 .1 3.9l-.6 3.8c-.2 1.1-.9 4.3 3.8 2.3S68.9 67.8 78 57.3c6.3-7 9.4-14 9.4-21.8" fill="#fff"/><path d="M34.8 26h-3.1a.9.9 0 0 0-.8.9v19a.8.8 0 0 0 .8.8h3.1a.8.8 0 0 0 .9-.8v-19a.9.9 0 0 0-.9-.9m21.1 0h-3.1a.9.9 0 0 0-.8.9v11.3l-8.7-11.8h-3.8a.9.9 0 0 0-.9.9v19a.8.8 0 0 0 .9.8h3.1a.8.8 0 0 0 .8-.8V34.6l8.7 11.8.3.2h3.5a.8.8 0 0 0 .9-.8v-19a.9.9 0 0 0-.9-.9M27.4 42h-8.3V26.9a.9.9 0 0 0-.9-.9h-3a.9.9 0 0 0-.9.9v19a.9.9 0 0 0 .3.6c.1.2.4.2.6.2h12.2a.8.8 0 0 0 .9-.8v-3.1a.9.9 0 0 0-.9-.8m45.4-11.2a.9.9 0 0 0 .9-.9v-3a.9.9 0 0 0-.9-.9H60.6l-.6.2a.6.6 0 0 0-.3.6v19a.9.9 0 0 0 .3.6.7.7 0 0 0 .6.2h12.2a.8.8 0 0 0 .9-.8v-3a.9.9 0 0 0-.9-.8h-8.3v-3.2h8.3a.9.9 0 0 0 .9-.9v-3.1a.9.9 0 0 0-.9-.8h-8.3v-3.2z" fill="#00b900"/></svg>