<svg version="1.0" xmlns="http://www.w3.org/2000/svg" width="400" height="400" viewBox="0 0 300 300"><path d="M0 150v150h300V0H0v150zm299 0v149H1V1h298v149z"/><path d="M88 139.6v6.5l-2.2-1.5c-2.9-2-9.7-2-12.6 0-7.2 5-6.7 19.4.9 23.5 3.2 1.7 9.8 1.3 12-.7 1.7-1.6 1.9-1.6 1.9-.1 0 1 .8 1.7 2 1.7 1.9 0 2-.7 2-18s-.1-18-2-18c-1.8 0-2 .7-2 6.6zm-2.9 9.3c3.2 3.2 3.8 7.9 1.8 12.4-4.3 9.6-16.7 2.2-13.9-8.2 1.1-4.2 4.1-7.1 7.3-7.1 1 0 3.2 1.3 4.8 2.9zm13.9 4.5c0 9.5.2 10.7 2.3 13.2 1.9 2.1 3.1 2.6 6.6 2.6 2.6-.1 5.1-.8 6.2-1.8 1.7-1.6 1.9-1.6 1.9-.1 0 1 .8 1.7 2 1.7 1.9 0 2-.7 2-13s-.1-13-2-13c-1.8 0-2 .7-2 8.8 0 10-1.2 12.6-6.2 13.7-5.3 1.2-6.8-1.7-6.8-13.1 0-8.7-.1-9.4-2-9.4s-2 .7-2 10.4zm28 2.6c0 12.3.1 13 2 13s2-.7 2-8.9c0-7 .4-9.3 1.8-10.9 2.7-3.2 5.8-3.6 8.1-1.3 1.8 1.8 2.1 3.4 2.1 11.6 0 8.8.1 9.5 2 9.5s2-.7 2-9.3c0-7.7.3-9.7 1.8-10.9 3.1-2.8 5.9-3.1 8.1-.9 1.8 1.8 2.1 3.4 2.1 11.6 0 8.8.1 9.5 2 9.5s2-.7 2-10.1c0-9.5-.9-13.5-3.4-15.1-2.2-1.5-9.2-.8-11.3 1.1-2 1.9-2 1.9-3.6 0-2.1-2.4-8.3-2.5-11.5-.3-2 1.4-2.2 1.4-2.2 0 0-.9-.9-1.6-2-1.6-1.9 0-2 .7-2 13zm42 0c0 12.3.1 13 2 13 1.8 0 2-.7 2-7.4 0-9.3 1.4-13.4 4.8-14.3 3.3-.9 5.4-.5 6.4 1 .4.7.8 5.6.8 10.9 0 8.9.2 9.8 1.9 9.8s1.9-1 2.3-9.5c.3-7.1.8-9.9 2-11.2 2.1-2 7.6-2.2 8.9-.2.5.8.9 5.8.9 11.1 0 9.1.1 9.8 2 9.8s2-.7 2-11.4c0-10.7-.1-11.6-2.2-13-2.9-2.1-8.7-2-11.6 0-2.1 1.5-2.5 1.5-4.1 0-2.3-2-9.4-2.1-11.1-.1-.7.8-1.6 1.5-2.1 1.5s-.9-.7-.9-1.5-.9-1.5-2-1.5c-1.9 0-2 .7-2 13zm42.1-7.8c8.5 21.3 8.3 20.5 6.9 23.8-.9 2.1-1.9 3-3.6 3-1.7 0-2.4.6-2.4 2 0 2.6 5 2.8 7.3.2.9-.9 4-8 7-15.7 7.5-19.4 7.4-18.7 4.6-18.3-1.9.2-2.8 1.9-5.7 10.8l-3.5 10.5-2.4-6.5c-1.3-3.6-3-8.4-3.9-10.8-1.2-3.3-2.1-4.2-4-4.2H209l2.1 5.2z"/></svg>